<svg class="desktop" style="    position: relative;
                              right: 61px;
                              bottom: 13px;
                              " xmlns="http://www.w3.org/2000/svg" width="64" height="64" viewBox="0 0 64 64" fill="none">
                           <path d="M56.8 30.5195C56.1224 37.296 55.3323 44.0946 52.2696 50.2675C51.5009 51.8171 49.2274 55.9417 46.9139 54.2785C44.8167 52.7704 45.9762 49.0697 46.7698 47.1946C49.3254 41.1568 53.6984 36.2698 56.8 30.5195Z" stroke="#121212" stroke-width="2.13333" stroke-miterlimit="1.5" stroke-linecap="round" stroke-linejoin="round"></path>
                           <path d="M51.7422 25.2032C44.9376 28.8362 38.8439 35.0967 32.5233 39.5967C27.3692 43.2661 19.825 47.4378 13.3446 47.9107C7.09813 48.3662 4.92746 42.4367 9.60906 38.382C15.7348 33.0762 25.6759 32.8347 33.2891 31.3458C39.3033 30.1694 46.1239 27.4754 51.7422 25.2032Z" stroke="#121212" stroke-width="2.13333" stroke-miterlimit="1.5" stroke-linecap="round" stroke-linejoin="round"></path>
                           <path d="M49.6543 16.081C42.6238 17.1139 34.8837 19.7059 27.9651 17.3963C26.0982 16.773 21.3819 14.0097 23.1522 11.3524C24.8803 8.75893 28.067 9.40053 30.5961 10.0347C35.1958 11.1885 39.526 13.1138 44.0334 14.5595C45.876 15.1506 47.8405 15.3947 49.6543 16.081Z" stroke="#121212" stroke-width="2.13333" stroke-miterlimit="1.5" stroke-linecap="round" stroke-linejoin="round"></path>
                        </svg>