<svg class="desktop" width="50" viewBox="35.054 30.135 49.992 59.104" fill="none" xmlns="http://www.w3.org/2000/svg" style="margin-left: auto;
                              display: block;
                              position: relative;
                              left: 41px;    top: 23px; ">
                           <path d="M67.4917 84.9789C70.9813 83.7859 74.316 82.1622 77.8537 81.1094C75.1684 78.4689 71.6437 76.338 69.3807 73.3352C72.9632 70.2046 76.254 66.5511 80.0123 63.6572C74.9718 63.7874 69.503 62.1369 64.5341 61.392C67.2272 57.1731 68.9058 52.8619 70.7893 48.2488C65.8657 49.566 60.786 52.0223 55.6809 52.2757C56.2269 47.4499 56.387 42.5878 56.8661 37.7629C53.4687 40.1262 50.6501 43.4607 47.0303 45.5103C46.018 41.7887 45.1841 38.3336 43.4657 34.8462C42.0029 37.9441 41.1515 41.4472 40.1538 44.7112" stroke="#121212" stroke-width="1.84615" stroke-miterlimit="1.5" stroke-linecap="round" stroke-linejoin="round"></path>
                        </svg>